<svg id="Layer_1" data-name="Layer 1" xmlns="http://www.w3.org/2000/svg" viewBox="0 0 200 49"><defs><style>.cls-1,.cls-8{fill:#0f4868;}.cls-2{fill:#1b1c1c;}.cls-3{fill:#d5b26a;}.cls-4{fill:#48b559;fill-rule:evenodd;}.cls-5,.cls-9{fill:#c39442;}.cls-6{fill:#c29343;}.cls-7{fill:#fff;}.cls-8{font-size:2.97px;}.cls-8,.cls-9{font-family:Montserrat-ExtraBold, Montserrat;font-weight:800;}.cls-9{font-size:3.1px;}.cls-10{letter-spacing:-0.01em;}</style></defs><path class="cls-1" d="M23.55,44.8c-2.15,0-3.66-.36-4.51-1.06s-1.23-2-1.23-3.88V37.23H22V41a2.52,2.52,0,0,0,.35,1.61,1.41,1.41,0,0,0,1.12.42,1.46,1.46,0,0,0,1.19-.44A2.55,2.55,0,0,0,25,41V39.11a5.35,5.35,0,0,0-.63-2.76,9.91,9.91,0,0,0-3-2.58,10.36,10.36,0,0,1-3-2.57,4.92,4.92,0,0,1-.6-2.59V27.44a3.17,3.17,0,0,1,1.36-2.81,7.82,7.82,0,0,1,4.38-1c2.14,0,3.66.36,4.51,1.07s1.25,2,1.25,3.9v1.23H25V27.41a2.47,2.47,0,0,0-.34-1.57,1.42,1.42,0,0,0-1.19-.47,1.43,1.43,0,0,0-1.12.42A2.5,2.5,0,0,0,22,27.41v1.11c0,1.38.9,2.68,2.66,3.85l.44.29.08.05c2.73,1.84,4.11,3.59,4.11,5.2v2c0,1.88-.42,3.19-1.24,3.87S25.69,44.8,23.55,44.8Z"/><polygon class="cls-2" points="82.64 19.31 82.64 14.75 83.68 14.75 83.68 18.47 86.17 18.47 86.17 19.31 82.64 19.31"/><rect class="cls-2" x="80.35" y="14.75" width="1" height="4.56"/><polygon class="cls-2" points="73.78 19.31 73.78 14.75 74.81 14.75 74.81 16.53 78.04 16.53 78.04 14.75 79.08 14.75 79.08 19.31 78.04 19.31 78.04 17.34 74.81 17.34 74.81 19.31 73.78 19.31"/><path class="cls-2" d="M68.85,17.91h-.92v.34a1.18,1.18,0,0,0,.23.83,1.27,1.27,0,0,0,.9.23h2.58a1.24,1.24,0,0,0,.88-.23,1.18,1.18,0,0,0,.23-.83V17.6a1.19,1.19,0,0,0-.23-.84,1.28,1.28,0,0,0-.88-.22H68.85v-1h3V16h.92v-.21h0v-.08a1,1,0,0,0-.24-.76,1.3,1.3,0,0,0-.88-.22H69.05a1.26,1.26,0,0,0-.88.23,1.11,1.11,0,0,0-.24.83v.53a1.19,1.19,0,0,0,.23.84,1.31,1.31,0,0,0,.89.22h2.79v1.07h-3v-.56Z"/><path class="cls-2" d="M86.93,19.31V14.75h3.8a1.2,1.2,0,0,1,.77.2.84.84,0,0,1,.24.67v1a.81.81,0,0,1-.24.65,1.14,1.14,0,0,1-.77.21H88v1.83Zm3.35-3.78H88v1.18h2.33a.61.61,0,0,0,.36-.08.3.3,0,0,0,.11-.27v-.49a.32.32,0,0,0-.11-.26.55.55,0,0,0-.36-.08Z"/><path class="cls-3" d="M45.82,23.27h-.4V21.14H47v.39H45.82v.58h1.07v.37H45.82Zm5.43-2.18a1.09,1.09,0,0,1,.61.17.93.93,0,0,1,.37.42,1.19,1.19,0,0,1,.12.54,1.34,1.34,0,0,1-.07.4,1.1,1.1,0,0,1-.2.35,1,1,0,0,1-.34.26,1.26,1.26,0,0,1-.49.09,1.21,1.21,0,0,1-.48-.09.85.85,0,0,1-.35-.25.94.94,0,0,1-.2-.35,1.27,1.27,0,0,1,0-.83,1.31,1.31,0,0,1,.21-.36.89.89,0,0,1,.34-.25,1.06,1.06,0,0,1,.48-.1Zm0,.37a.72.72,0,0,0-.4.11.66.66,0,0,0-.23.3.81.81,0,0,0-.07.35.9.9,0,0,0,.18.52.64.64,0,0,0,.52.21.62.62,0,0,0,.52-.21.86.86,0,0,0,.18-.52,1.24,1.24,0,0,0,0-.27.8.8,0,0,0-.13-.24.44.44,0,0,0-.22-.18.66.66,0,0,0-.32-.07Zm5.82-.32h.4v1.22a1,1,0,0,1-.25.71.91.91,0,0,1-.67.25,1,1,0,0,1-.68-.25.92.92,0,0,1-.27-.71V21.14H56v1.22a.64.64,0,0,0,.14.44.58.58,0,0,0,.41.15.46.46,0,0,0,.38-.16.63.63,0,0,0,.14-.43Zm5.15,1.32V21.13h.4v2.14h-.25l-1.12-1.45v1.44h-.4V21.13h.32Zm4.54-1.33a1.4,1.4,0,0,1,.47.09.83.83,0,0,1,.33.24,1.14,1.14,0,0,1,.19.34,1,1,0,0,1,.07.38,1.34,1.34,0,0,1-.06.4.92.92,0,0,1-.19.35.93.93,0,0,1-.33.25,1.24,1.24,0,0,1-.48.09h-.85V21.13Zm-.44.39v1.36h.44a.6.6,0,0,0,.5-.21.68.68,0,0,0,.16-.49.71.71,0,0,0-.17-.47.63.63,0,0,0-.49-.19Zm6.42,1.75-.18-.4H71.44l-.18.4h-.44l1-2.14h.44l1,2.14Zm-.34-.78-.4-.91-.4.91Zm4.11.78V21.5h-.67v-.37h1.75v.37h-.67v1.77Zm4.68,0h-.4V21.13h.4Zm4.4-2.18a1.08,1.08,0,0,1,1,.59,1.33,1.33,0,0,1,.11.54,1.09,1.09,0,0,1-.07.4.94.94,0,0,1-.2.35,1,1,0,0,1-.34.26,1.26,1.26,0,0,1-.49.09,1.21,1.21,0,0,1-.48-.09.93.93,0,0,1-.35-.25.94.94,0,0,1-.2-.35,1.14,1.14,0,0,1-.07-.41,1.42,1.42,0,0,1,.07-.42,1.58,1.58,0,0,1,.2-.36,1,1,0,0,1,.36-.25,1,1,0,0,1,.47-.1Zm0,.37a.72.72,0,0,0-.4.11.66.66,0,0,0-.23.3.81.81,0,0,0-.07.35.84.84,0,0,0,.18.52.75.75,0,0,0,1,0,.86.86,0,0,0,.18-.52,1.24,1.24,0,0,0,0-.27.8.8,0,0,0-.13-.24.44.44,0,0,0-.22-.18.66.66,0,0,0-.32-.07Zm5.75,1V21.13h.4v2.14H91.5l-1.13-1.45v1.44H90V21.13h.32Z"/><path class="cls-2" d="M51.34,16.82l.11.11a1.94,1.94,0,0,1,.1.17,1.07,1.07,0,0,1,.12.27.86.86,0,0,1,0,.27.67.67,0,0,1-.23.55.86.86,0,0,1-.22.15,1.26,1.26,0,0,1-.27,0,.76.76,0,0,1-.27-.05.73.73,0,0,1-.23-.16,1,1,0,0,1-.15-.27,1.2,1.2,0,0,1,0-.35.84.84,0,0,1,.07-.37.67.67,0,0,1,.21-.26l.24-.11a1.12,1.12,0,0,1,.27,0l.15,0h.07Zm-1.4-.69H48.69v-.08a1.5,1.5,0,0,0-.31-1,1.05,1.05,0,0,0-.87-.38h-1.7v.85h1.27a.57.57,0,0,1,.43.18.71.71,0,0,1,.12.2.78.78,0,0,1,0,.22.46.46,0,0,1,0,.21.45.45,0,0,1-.11.19.46.46,0,0,1-.18.13.61.61,0,0,1-.24,0H45.42v1H46c.13.4.33.93.41,1.32,0,.07,0,.14.06.19a.62.62,0,0,0,.08.12.2.2,0,0,0,.11.06l.2,0h1.89v-.91H47.66a.4.4,0,0,1-.26-.07.35.35,0,0,1-.13-.23l-.09-.5h.09a1.47,1.47,0,0,0,.66-.17,2.43,2.43,0,0,0,.29-.19,1.71,1.71,0,0,0,.22-.25l0,0h.77l0,.09,0,.19a1.27,1.27,0,0,0,0,.2,1.63,1.63,0,0,0,.13.69,1.35,1.35,0,0,0,.39.52,1.68,1.68,0,0,0,.6.33,2.17,2.17,0,0,0,.74.11,1.55,1.55,0,0,0,1.11-.39,1.39,1.39,0,0,0,.31-.45,1.58,1.58,0,0,0,.1-.55,1.66,1.66,0,0,0-.1-.62L52.32,17l0-.09-.06-.11h1.16v2.58h1.18V14.61l-1.78-2.33H51.15l2.22,2.42v1.22H50.75a1.62,1.62,0,0,0-.78.2h0Z"/><path class="cls-2" d="M56.37,15.82a1.53,1.53,0,0,0-.88.59,1.48,1.48,0,0,0-.29.52,1.85,1.85,0,0,0-.11.63,2.13,2.13,0,0,0,.23,1,2.08,2.08,0,0,0,.69.76,3,3,0,0,0,.92.44,4.55,4.55,0,0,0,2,.05,3.6,3.6,0,0,0,.74-.26v-.9l-.13.07-.23.1h0a4,4,0,0,1-.68.17,4.52,4.52,0,0,1-.74.06,1.57,1.57,0,0,1-1.12-.42,1.32,1.32,0,0,1-.33-.51,1.78,1.78,0,0,1-.12-.67,1.13,1.13,0,0,1,.09-.45c.34-.78,1.31-.6,2-.35a.55.55,0,0,1,.24.17.41.41,0,0,1,.08.27.23.23,0,0,1-.06.16.24.24,0,0,1-.16.08.88.88,0,0,1-.2,0h-.24a1.18,1.18,0,0,1-.26,0,1.45,1.45,0,0,1-.26-.07l-.1,0h0v.89l.13,0,.13,0h0l.36,0h.31a2.8,2.8,0,0,0,.6-.05,1.22,1.22,0,0,0,.42-.15.93.93,0,0,0,.35-.36,1.35,1.35,0,0,0,.11-.57,1,1,0,0,0-.5-.84,2,2,0,0,0-.42-.2,1.7,1.7,0,0,0-.47-.11l-.43,0c-.13,0-.23,0-.3,0a.34.34,0,0,1-.21-.09.26.26,0,0,1-.08-.19.34.34,0,0,1,.05-.17.29.29,0,0,1,.13-.11.54.54,0,0,1,.23-.06h.63l.35.06.28.06h0v-.76l-.09,0-.34-.06a2.84,2.84,0,0,0-.38,0l-.31,0a2.28,2.28,0,0,0-1.37.32h0a.77.77,0,0,0-.22.26.69.69,0,0,0-.05.47.8.8,0,0,0,0,.15h0a0,0,0,0,0,0,0l.07.1Z"/><path class="cls-4" d="M66.11,15.58s.15-.65.18-.75a7.61,7.61,0,0,1,1.24-2.56c.18-.23.35-.43.54-.64l1.1-1,.12-.11s0,0,.06-.06l.83-.73.12-.11c.19-.17.65-.63.84-.83a6.79,6.79,0,0,0,.63-.81,3.67,3.67,0,0,0,.59-1.32l0,0,0,0a1.75,1.75,0,0,1-.44.57,6.83,6.83,0,0,1-3,1.32,13,13,0,0,0-1.33.49,3.51,3.51,0,0,0-1.88,1.73,2.9,2.9,0,0,0-.14,1.56,2.83,2.83,0,0,0,.59,1.23l.42-.73c.15-.24.32-.46.48-.67s.37-.42.55-.6l.14-.14A16,16,0,0,1,69.49,10c.4-.29.76-.59,1.14-.88l.07-.07L70.79,9c-.05.07-.63.55-.7.61l-.18.16-.09.07-.64.53-.19.15-.36.3c-.27.22-.45.43-.68.65a8,8,0,0,0-.62.69,6.92,6.92,0,0,0-1.21,2.13c0,.09-.12.46-.15.51a6.79,6.79,0,0,0-1.46-2.26c-.53-.74-.43-.76-.36-1.78A7.46,7.46,0,0,0,63.46,7a5.51,5.51,0,0,0-.55-.94,2,2,0,0,0,.1.29,2.72,2.72,0,0,1,.07.33c.31,1.69-.69,3.55.77,5.45l.36.46c.25.3.47.6.72.9a4.26,4.26,0,0,1,.74,1.29,2,2,0,0,1,.17.23c.17.29.17.36.27.54Z"/><path class="cls-4" d="M65.51,23.3c0-.22.15-.24.19-.46s-.15-1.38-.21-2.39A3.64,3.64,0,0,0,65,18.23a8.65,8.65,0,0,0-.66-.94l-.18-.22c-.09-.12-.6-.66-.75-.8-.42-.38-.58-.53-1-.9s-.89-.68-1.32-1c-.16-.14-.72-.58-.84-.72l2.59,1.9c.12.08.67.53.79.64s.58.55.72.72l.16.18a3.37,3.37,0,0,1,.29.35,8.07,8.07,0,0,1,.63,1,1.48,1.48,0,0,0,.13.21,3.1,3.1,0,0,0,.61-1.38A3,3,0,0,0,66,15.49a2.62,2.62,0,0,0-.61-.88l-.06-.07-.2-.18a7.85,7.85,0,0,0-2.74-1.26,8.43,8.43,0,0,1-3.21-1.28L59,11.71a3.49,3.49,0,0,1-.57-.7,2.78,2.78,0,0,0,.26.75A6.3,6.3,0,0,0,59.53,13l.12.14a.81.81,0,0,0,.12.14l.26.26.39.37c.06.05.08.09.14.14a1.74,1.74,0,0,0,.14.12l.14.12,2.22,1.93a8.58,8.58,0,0,1,1.21,1.4,4.58,4.58,0,0,1,1,3c.08,1.05.09,1.73.16,2s.08.64.12.71Z"/><path class="cls-5" d="M14.13,25c.09-.33.16-.66.26-1a18.1,18.1,0,0,1,6.14-8.36,3.37,3.37,0,0,0,.7-.76,9.21,9.21,0,0,0,.31-10l-.33-.6c.61,0,1.14-.1,1.66-.09a11.18,11.18,0,0,1,10,5.84.6.6,0,0,0,.69.35A21.16,21.16,0,0,1,44,11.68l.53.21L42.8,13.52l-6.17,6a.65.65,0,0,1-.78.19C28.34,17,19.3,20.2,14.56,24.78l-.34.29Zm4.13-4.67a.62.62,0,0,0,.16-.07,20.61,20.61,0,0,1,17.16-2.53.57.57,0,0,0,.63-.18l5-5a1.71,1.71,0,0,0,.22-.28C33.1,10.32,23.24,14.19,18.26,20.36ZM23.9,5.77a13.34,13.34,0,0,1-.13,8.17,32.35,32.35,0,0,1,7.84-2.89A10.88,10.88,0,0,0,23.9,5.77Z"/><path class="cls-5" d="M35.15,21.36c-.57.57-1.13,1.13-1.71,1.68a.4.4,0,0,1-.37,0,16.87,16.87,0,0,0-10.62-1.14l-.15,0C24.8,20.11,32.24,19.78,35.15,21.36Z"/><path class="cls-1" d="M32.81,44.56V29.71H30.62V27.65h8.47v2.06H36.94V44.56Z"/><path class="cls-1" d="M45.33,44.56V41.32H43.69v3.24H39.63V41.3a46.8,46.8,0,0,1,.6-8.23,16.1,16.1,0,0,1,1.93-5.42h4.66a16.68,16.68,0,0,1,2,5.48,44.37,44.37,0,0,1,.63,8.17v3.26Zm-.83-14.1A22.18,22.18,0,0,0,43.85,34a52.22,52.22,0,0,0-.24,5.28h1.81c-.06-2.41-.15-4.24-.29-5.5A17.56,17.56,0,0,0,44.5,30.46Z"/><path class="cls-1" d="M51.62,44.56V27.65H55.9a9.43,9.43,0,0,1,4.27.67,2.44,2.44,0,0,1,1.18,2.33v2.5A4.42,4.42,0,0,1,61.08,35a1.42,1.42,0,0,1-.9.77l1.47,8.83h-4l-1.17-8.41h-.83v8.41Zm5.73-11.43V30.9A1.18,1.18,0,0,0,57,30a2,2,0,0,0-1.14-.24h-.26v4.6h.17A2.3,2.3,0,0,0,57,34.08,1.15,1.15,0,0,0,57.35,33.13Z"/><path class="cls-1" d="M64.71,44.56V29.71H62.52V27.65H71v2.06H68.85V44.56Z"/><path class="cls-1" d="M76.45,41.44a1.89,1.89,0,0,0,.18,1.05,1.1,1.1,0,0,0,1.28,0,1.91,1.91,0,0,0,.18-1.06V27.65H82.2v12.9a4.1,4.1,0,0,1-1.12,3.31,6.06,6.06,0,0,1-3.8.92,6.12,6.12,0,0,1-3.82-.91,4.1,4.1,0,0,1-1.12-3.32V27.65h4.11Z"/><path class="cls-1" d="M84.46,44.56V27.65h4.28a9.43,9.43,0,0,1,4.27.67,2.44,2.44,0,0,1,1.18,2.33v2.5a2.52,2.52,0,0,1-1.13,2.29,7.06,7.06,0,0,1-3.62.71h-1v8.41ZM90.19,32.9v-2a1.18,1.18,0,0,0-.31-.95,2,2,0,0,0-1.14-.24h-.26v4.36h.17a2.3,2.3,0,0,0,1.22-.23A1.11,1.11,0,0,0,90.19,32.9Z"/><path class="cls-1" d="M97.17,44.51V21.75h10.77v2.77h-5.43v5.69h5.15V33h-5.15V44.51Z"/><path class="cls-1" d="M112.81,44.51V21.75h10.77v2.77h-5.43v5.69h5.15V33h-5.15v8.77h5.43v2.77Z"/><path class="cls-1" d="M141.42,29h-5.51V25.91a2.44,2.44,0,0,0-.25-1.37,1.11,1.11,0,0,0-.91-.32,1.08,1.08,0,0,0-.84.29,2.4,2.4,0,0,0-.26,1.4v1.18q0,2,2.63,3.69l.45.31.09.05c3.07,2,4.6,4,4.6,5.9v2.07c0,2.14-.5,3.63-1.49,4.45s-2.71,1.24-5.12,1.24-4.11-.41-5.1-1.23-1.49-2.3-1.49-4.46V35.85h5.43v4.46a2.42,2.42,0,0,0,.26,1.4,1,1,0,0,0,.84.29,1.14,1.14,0,0,0,.91-.3,2.43,2.43,0,0,0,.25-1.39v-2a5.09,5.09,0,0,0-.61-2.68,10,10,0,0,0-3-2.59,11.45,11.45,0,0,1-3.34-2.87,5.65,5.65,0,0,1-.71-3V26a3.81,3.81,0,0,1,1.66-3.36,8.7,8.7,0,0,1,4.93-1.13q3.62,0,5.12,1.24c1,.83,1.49,2.33,1.49,4.48Z"/><path class="cls-1" d="M148.67,44.51v-20h-2.91V21.75H157v2.77h-2.86v20Z"/><rect class="cls-6" x="157.01" y="38.1" width="28.86" height="6.7"/><path class="cls-7" d="M158.89,43.67a1.21,1.21,0,0,1-.81-.22,1.24,1.24,0,0,1-.23-.87V40.21a1.08,1.08,0,0,1,.28-.85,1.56,1.56,0,0,1,1-.23,1.59,1.59,0,0,1,1,.23,1.08,1.08,0,0,1,.28.85v.18h-1V40c0-.16,0-.26-.06-.31a.32.32,0,0,0-.42,0s-.07.14-.07.31v2.87c0,.17,0,.27.07.32a.33.33,0,0,0,.42,0c.05,0,.06-.15.06-.33V41.3h-.24v-.44h1.22V43.6h-.46l-.13-.25-.06.08a.57.57,0,0,1-.29.17A1.87,1.87,0,0,1,158.89,43.67Z"/><path class="cls-7" d="M163.4,43.66a1.59,1.59,0,0,1-1-.23,1.08,1.08,0,0,1-.27-.85v-3.4h1v3.64a.55.55,0,0,0,.06.32.35.35,0,0,0,.43,0,.57.57,0,0,0,.06-.33V39.18h1v3.4a1.06,1.06,0,0,1-.27.84A1.5,1.5,0,0,1,163.4,43.66Z"/><path class="cls-7" d="M167.69,43.66a1.62,1.62,0,0,1-1-.23,1.08,1.08,0,0,1-.27-.85V42h1v.8a.57.57,0,0,0,.06.33.29.29,0,0,0,.22.07.27.27,0,0,0,.21-.08s.07-.15.07-.32V39.18h1v3.4a1.07,1.07,0,0,1-.27.85A1.56,1.56,0,0,1,167.69,43.66Z"/><path class="cls-7" d="M172.23,43.6v-.87h-.55v.87h-1v-.81a13.15,13.15,0,0,1,.16-2.2,4.85,4.85,0,0,1,.48-1.41h1.16A4.63,4.63,0,0,1,173,40.6a12.27,12.27,0,0,1,.16,2.19v.81Zm-.33-3.74a5.56,5.56,0,0,0-.17,1,13.1,13.1,0,0,0-.07,1.42v.06h.6v-.06c0-.65,0-1.14-.08-1.48a4.37,4.37,0,0,0-.17-.9l-.06-.2Z"/><path class="cls-7" d="M176.61,43.6l-.31-2.26H176V43.6H175V39.18h1.07a2.32,2.32,0,0,1,1.09.18.58.58,0,0,1,.28.57v.67a1,1,0,0,1-.07.46.29.29,0,0,1-.2.17l0,0,.39,2.35ZM176,41h.1a.65.65,0,0,0,.36-.07.39.39,0,0,0,.11-.31V40a.39.39,0,0,0-.11-.31.54.54,0,0,0-.33-.07H176Z"/><path class="cls-7" d="M180.73,43.6v-.87h-.56v.87h-.94v-.81a13.29,13.29,0,0,1,.15-2.2,4.57,4.57,0,0,1,.49-1.41H181a4.63,4.63,0,0,1,.49,1.42,12.27,12.27,0,0,1,.16,2.19v.81Zm-.34-3.74a5.56,5.56,0,0,0-.17,1c0,.36-.06.84-.07,1.42v.06h.6v-.06c0-.65,0-1.14-.08-1.48a4.37,4.37,0,0,0-.17-.9l-.05-.2Z"/><polygon class="cls-7" points="183.66 43.6 183.66 39.62 183.08 39.62 183.08 39.19 185.19 39.19 185.19 39.62 184.62 39.62 184.62 43.6 183.66 43.6"/><text class="cls-8" transform="translate(157.01 36.81)">SEASON</text><text class="cls-9" transform="translate(171.14 36.9)"><tspan xml:space="preserve"> 3</tspan><tspan class="cls-10" x="2.78" y="0">.</tspan><tspan x="3.61" y="0">0</tspan></text></svg>